<svg width="59" height="46" viewBox="0 0 59 46" fill="none" xmlns="http://www.w3.org/2000/svg">
<path d="M49.743 4.02941C45.892 2.22284 41.8179 0.939191 37.6284 0.212402C37.1065 1.15832 36.4968 2.43058 36.0764 3.44273C31.5594 2.76175 27.0839 2.76175 22.6499 3.44273C22.2297 2.43081 21.6062 1.15832 21.0796 0.212402C16.886 0.939526 12.8084 2.22644 8.95555 4.03884C1.28866 15.655 -0.789781 26.9823 0.249323 38.1493C5.33451 41.9566 10.2626 44.2696 15.1076 45.7831C16.3117 44.1229 17.3761 42.3652 18.2898 40.5282C16.5502 39.8642 14.8732 39.0459 13.2787 38.0831C13.6983 37.7712 14.1081 37.4463 14.5073 37.1086C24.1694 41.6397 34.6677 41.6397 44.2147 37.1086C44.6156 37.444 45.0252 37.769 45.443 38.0831C43.8459 39.0485 42.1658 39.8684 40.4227 40.5331C41.3416 42.3775 42.4041 44.1369 43.605 45.7877C48.4546 44.2744 53.3872 41.9615 58.4724 38.1493C59.6918 25.2041 56.3896 13.9805 49.743 4.02918V4.02941ZM19.6062 31.2818C16.7057 31.2818 14.327 28.5669 14.327 25.2609C14.327 21.9549 16.655 19.2354 19.6062 19.2354C22.5577 19.2354 24.9362 21.9501 24.8855 25.2609C24.8901 28.5669 22.5577 31.2818 19.6062 31.2818ZM39.1155 31.2818C36.2149 31.2818 33.8365 28.5669 33.8365 25.2609C33.8365 21.9549 36.1642 19.2354 39.1155 19.2354C42.0669 19.2354 44.4454 21.9501 44.3947 25.2609C44.3947 28.5669 42.0669 31.2818 39.1155 31.2818Z" fill="#727CFF"/>
</svg>
