<svg width="57" height="58" viewBox="0 0 57 58" fill="none" xmlns="http://www.w3.org/2000/svg">
<path d="M37.0221 0.953613H20.073C4.60604 0.953613 0.939453 4.6784 0.939453 20.3909V37.609C0.939453 53.3215 4.60604 57.0463 20.073 57.0463H37.0221C52.4891 57.0463 56.1557 53.3215 56.1557 37.609V20.3909C56.1557 4.6784 52.4528 0.953613 37.0221 0.953613ZM45.5148 40.9675H41.5066C39.9882 40.9675 39.5206 39.744 36.7892 36.9324C34.4167 34.5959 33.3659 34.2856 32.781 34.2856C31.9545 34.2856 31.7198 34.5223 31.7198 35.6739V39.3531C31.7198 40.34 31.4144 40.9324 28.8435 40.9324C24.592 40.9324 19.8746 38.3207 16.5669 33.4548C11.5786 26.3242 10.2138 20.9833 10.2138 19.879C10.2138 19.2848 10.4467 18.7292 11.57 18.7292H15.5868C16.6031 18.7292 16.9896 19.2042 17.3847 20.3085C19.3707 26.1332 22.6784 31.2357 24.0433 31.2357C24.5471 31.2357 24.78 30.9991 24.78 29.6932V23.6774C24.6265 20.9027 23.1892 20.6643 23.1892 19.6792C23.1892 19.2042 23.5757 18.7292 24.1951 18.7292H30.512C31.3661 18.7292 31.6801 19.2042 31.6801 20.2261V28.3418C31.6801 29.2182 32.0666 29.5284 32.2996 29.5284C32.8034 29.5284 33.2348 29.2182 34.1682 28.2681C37.0532 24.9816 39.1203 19.9141 39.1203 19.9141C39.3894 19.3199 39.857 18.7642 40.8733 18.7642H44.8902C46.0946 18.7642 46.3637 19.3935 46.0946 20.2699C45.5907 22.6433 40.6749 29.6914 40.6749 29.6914C40.2522 30.4031 40.09 30.7133 40.6749 31.5074C41.1063 32.1016 42.5091 33.3338 43.4425 34.4381C45.1594 36.4188 46.4793 38.0805 46.8313 39.2304C47.2265 40.3715 46.6432 40.9657 45.5096 40.9657L45.5148 40.9675Z" fill="#0085FF"/>

</svg>
