<svg width="56" height="58" viewBox="0 0 56 58" fill="none" xmlns="http://www.w3.org/2000/svg">
<path d="M55.9389 28.9999C55.9389 44.4933 43.5598 57.0463 28.2862 57.0463C15.6177 57.0463 4.95293 48.4175 1.68003 36.6448L12.278 41.0893C12.9905 44.7195 16.1632 47.4675 19.9481 47.4675C24.312 47.4675 27.9523 43.8034 27.763 39.1554L37.1698 32.3474C42.9697 32.4944 47.8346 27.722 47.8346 21.7735C47.8346 15.938 43.159 11.1996 37.4036 11.1996C31.6482 11.1996 26.9726 15.9494 26.9726 21.7735V21.9092L20.3823 31.601C18.6568 31.4992 16.9647 31.9855 15.5398 32.9694L0.722656 26.7495C1.85815 12.3079 13.7586 0.953613 28.2862 0.953613C43.5598 0.953613 55.9389 13.5066 55.9389 28.9999ZM18.0557 43.5094L14.6603 42.0845C15.2842 43.4006 16.3616 44.4387 17.6883 45.0022C20.6829 46.2688 24.1228 44.8212 25.3696 41.7904C25.9707 40.3203 25.9818 38.7031 25.3807 37.2329C24.7796 35.7627 23.6552 34.6092 22.208 33.9985C20.7719 33.3878 19.2357 33.4105 17.8775 33.9307L21.3842 35.4008C23.5884 36.3282 24.6348 38.8953 23.7109 41.1345C22.7869 43.385 20.2598 44.4367 18.0557 43.5094ZM37.4036 28.819C33.5741 28.819 30.457 25.6525 30.457 21.7735C30.457 17.8945 33.5741 14.728 37.4036 14.728C41.2331 14.728 44.3501 17.8945 44.3501 21.7735C44.3501 25.6525 41.2442 28.819 37.4036 28.819ZM37.4147 27.0548C40.298 27.0548 42.6358 24.6799 42.6358 21.7622C42.6358 18.8331 40.298 16.4696 37.4147 16.4696C34.5315 16.4696 32.1937 18.8445 32.1937 21.7622C32.2048 24.6799 34.5426 27.0548 37.4147 27.0548Z" fill="url(#paint0_linear_0_2544)"/>
<defs>
<linearGradient id="paint0_linear_0_2544" x1="28.3308" y1="0.953613" x2="28.3308" y2="69.9999" gradientUnits="userSpaceOnUse">
<stop stop-color="#112550"/>
<stop offset="1" stop-color="#0178AC"/>
</linearGradient>
</defs>
</svg>
