<svg width="57" height="58" viewBox="0 0 57 58" fill="none" xmlns="http://www.w3.org/2000/svg">
<path d="M56.1663 23.5071H53.9072V23.3907H28.6655V34.6092H44.5159C42.2034 41.1398 35.9898 45.8277 28.6655 45.8277C19.3723 45.8277 11.8377 38.2931 11.8377 28.9999C11.8377 19.7068 19.3723 12.1721 28.6655 12.1721C32.9552 12.1721 36.8578 13.7904 39.8293 16.4338L47.7622 8.50088C42.7531 3.83257 36.0529 0.953613 28.6655 0.953613C13.1769 0.953613 0.619141 13.5114 0.619141 28.9999C0.619141 44.4885 13.1769 57.0463 28.6655 57.0463C44.1541 57.0463 56.7118 44.4885 56.7118 28.9999C56.7118 27.1194 56.5183 25.2838 56.1663 23.5071Z" fill="#FFC107"/>
<path d="M3.85378 15.9458L13.0684 22.7035C15.5617 16.5305 21.5992 12.1721 28.6655 12.1721C32.9552 12.1721 36.8578 13.7904 39.8293 16.4338L47.7622 8.50088C42.7531 3.83257 36.0529 0.953613 28.6655 0.953613C17.8929 0.953613 8.55154 7.03546 3.85378 15.9458Z" fill="#FF3D00"/>
<path d="M28.6655 57.0463C35.9098 57.0463 42.4928 54.2738 47.4696 49.7654L38.7892 42.42C35.8788 44.6335 32.322 45.8306 28.6655 45.8277C21.3706 45.8277 15.177 41.1762 12.8436 34.6849L3.69766 41.7315C8.33933 50.8143 17.7653 57.0463 28.6655 57.0463Z" fill="#4CAF50"/>
<path d="M56.1663 23.5071H53.9072V23.3907H28.6655V34.6092H44.5159C43.4097 37.7173 41.4172 40.4333 38.7846 42.4215L38.7888 42.4187L47.4691 49.764C46.8549 50.3222 56.7118 43.0231 56.7118 28.9999C56.7118 27.1194 56.5183 25.2838 56.1663 23.5071Z" fill="#1976D2"/>
</svg>
